<?xml version="1.0" encoding="UTF-8" standalone="no"?>
<svg
   width="576"
   height="576"
   viewBox="0 0 691.2 691.2"
   fill="none"
   version="1.1"
   id="svg3"
   xmlns="http://www.w3.org/2000/svg"
   xmlns:svg="http://www.w3.org/2000/svg">
  <defs
     id="defs3" />
  <g
     id="g3"
     transform="matrix(22.032517,0,0,21.613281,81.642294,138.11456)"
     style="display:inline">
    <path
       d="M 11,16.1857 V 3.01412 C 11,2.12321 9.92286,1.67704 9.29289,2.30701 L 6,5.5999 H 4 c -1.10457,0 -2,0.89543 -2,2 v 4 c 0,1.1046 0.89543,2 2,2 h 2 l 3.29289,3.2929 C 9.92286,17.5228 11,17.0766 11,16.1857 Z"
       fill="#ffffff"
       id="path1" />
    <path
       d="m 12.7678,6.77147 c 0.2929,-0.29289 0.7677,-0.29289 1.0606,0 0.3715,0.37144 0.6661,0.8124 0.8671,1.29773 C 14.8965,8.5545 15,9.0746 15,9.5999 c 0,0.5253 -0.1035,1.0454 -0.3045,1.5307 -0.201,0.4853 -0.4956,0.9263 -0.8671,1.2977 -0.2929,0.2929 -0.7677,0.2929 -1.0606,0 -0.2929,-0.2929 -0.2929,-0.7677 0,-1.0606 0.2321,-0.2322 0.4163,-0.5078 0.5419,-0.8111 C 13.4353,10.2533 13.5,9.9282 13.5,9.5999 13.5,9.2716 13.4353,8.9465 13.3097,8.6432 13.1841,8.3399 12.9999,8.0643 12.7678,7.8321 c -0.2929,-0.29286 -0.2929,-0.76773 0,-1.06063 z"
       fill="#ffffff"
       id="path2" />
    <path
       d="m 16.3033,4.2966 c -0.2929,-0.29289 -0.7678,-0.29289 -1.0607,0 -0.2929,0.29289 -0.2929,0.76777 0,1.06066 0.5572,0.55715 0.9991,1.21859 1.3007,1.94654 C 16.8448,8.0318 17,8.812 17,9.5999 c 0,0.7879 -0.1552,1.5681 -0.4567,2.2961 -0.3016,0.728 -0.7435,1.3894 -1.3007,1.9465 -0.2929,0.2929 -0.2929,0.7678 0,1.0607 0.2929,0.2929 0.7678,0.2929 1.0607,0 C 16.9997,14.2068 17.5522,13.38 17.9291,12.47 18.306,11.5601 18.5,10.5848 18.5,9.5999 18.5,8.615 18.306,7.6397 17.9291,6.72978 17.5522,5.81983 16.9997,4.99304 16.3033,4.2966 Z"
       fill="#ffffff"
       id="path3"
       style="display:none" />
    <path
       d="m 19.76404,2.3051989 c -0.2929,-0.4028709 -0.7678,-0.4028709 -1.0607,0 -0.2929,0.4028708 -0.2929,1.0560694 0,1.4589403 0.5572,0.766361 0.9991,1.6761732 1.3007,2.6774701 0.3015,1.0013657 0.4567,2.0745325 0.4567,3.1582907 0,1.083757 -0.1552,2.156924 -0.4567,3.15829 -0.3016,1.001366 -0.7435,1.911123 -1.3007,2.677415 -0.2929,0.402885 -0.2929,1.056111 0,1.458996 0.2929,0.402884 0.7678,0.402884 1.0607,0 0.6964,-0.9579 1.2489,-2.095166 1.6258,-3.346873 0.3769,-1.251569 0.5709,-2.593097 0.5709,-3.947828 0,-1.3547321 -0.194,-2.6962594 -0.5709,-3.9478565 -0.3769,-1.2516383 -0.9294,-2.3888899 -1.6258,-3.3468446 z"
       fill="#ffffff"
       id="path4"
       style="display:none;stroke-width:1.17282" />
  </g>
</svg>
