<svg width="64" height="64" viewBox="0 0 24 24" fill="none" xmlns="http://www.w3.org/2000/svg">
<path d="M11 18.5857V5.41412C11 4.52321 9.92286 4.07704 9.29289 4.70701L6 7.9999H4C2.89543 7.9999 2 8.89533 2 9.9999V13.9999C2 15.1045 2.89543 15.9999 4 15.9999H6L9.29289 19.2928C9.92286 19.9228 11 19.4766 11 18.5857Z" fill="white"/>
<path d="M12.7678 9.17147C13.0607 8.87858 13.5355 8.87858 13.8284 9.17147C14.1999 9.54291 14.4945 9.98387 14.6955 10.4692C14.8965 10.9545 15 11.4746 15 11.9999C15 12.5252 14.8965 13.0453 14.6955 13.5306C14.4945 14.0159 14.1999 14.4569 13.8284 14.8283C13.5355 15.1212 13.0607 15.1212 12.7678 14.8283C12.4749 14.5354 12.4749 14.0606 12.7678 13.7677C12.9999 13.5355 13.1841 13.2599 13.3097 12.9566C13.4353 12.6533 13.5 12.3282 13.5 11.9999C13.5 11.6716 13.4353 11.3465 13.3097 11.0432C13.1841 10.7399 12.9999 10.4643 12.7678 10.2321C12.4749 9.93924 12.4749 9.46437 12.7678 9.17147Z" fill="white"/>
<path d="M16.3033 6.6966C16.0104 6.40371 15.5355 6.40371 15.2426 6.6966C14.9497 6.98949 14.9497 7.46437 15.2426 7.75726C15.7998 8.31441 16.2417 8.97585 16.5433 9.7038C16.8448 10.4318 17 11.212 17 11.9999C17 12.7878 16.8448 13.568 16.5433 14.296C16.2417 15.024 15.7998 15.6854 15.2426 16.2425C14.9497 16.5354 14.9497 17.0103 15.2426 17.3032C15.5355 17.5961 16.0104 17.5961 16.3033 17.3032C16.9997 16.6068 17.5522 15.78 17.9291 14.87C18.306 13.9601 18.5 12.9848 18.5 11.9999C18.5 11.015 18.306 10.0397 17.9291 9.12978C17.5522 8.21983 16.9997 7.39304 16.3033 6.6966Z" fill="white"/>
</svg>
