<svg width="64" height="64" viewBox="0 0 24 24" fill="none" xmlns="http://www.w3.org/2000/svg">
<path d="M11 18.5857V5.41412C11 4.52321 9.92286 4.07704 9.29289 4.70701L6 7.9999H4C2.89543 7.9999 2 8.89533 2 9.9999V13.9999C2 15.1045 2.89543 15.9999 4 15.9999H6L9.29289 19.2928C9.92286 19.9228 11 19.4766 11 18.5857Z" fill="white"/>
<path d="M14.2197 15.7802C13.9268 15.4873 13.9268 15.0125 14.2197 14.7196L16.9393 11.9999L14.2197 9.28023C13.9268 8.98734 13.9268 8.51247 14.2197 8.21957C14.5126 7.92668 14.9874 7.92668 15.2803 8.21957L18 10.9392L20.7197 8.21957C21.0126 7.92668 21.4874 7.92668 21.7803 8.21957C22.0732 8.51247 22.0732 8.98734 21.7803 9.28023L19.0607 11.9999L21.7803 14.7196C22.0732 15.0125 22.0732 15.4873 21.7803 15.7802C21.4874 16.0731 21.0126 16.0731 20.7197 15.7802L18 13.0606L15.2803 15.7802C14.9874 16.0731 14.5126 16.0731 14.2197 15.7802Z" fill="white"/>
</svg>
